<svg width="1600" height="1000" viewBox="0 0 1600 1000" xmlns="http://www.w3.org/2000/svg">
  <defs>
    <linearGradient id="bg1" x1="0%" y1="0%" x2="100%" y2="100%">
      <stop offset="0%" stop-color="#0E3D37"/>
      <stop offset="100%" stop-color="#147A6D"/>
    </linearGradient>
  </defs>
  <rect width="1600" height="1000" fill="url(#bg1)"/>
  <g opacity="0.5">
    <circle cx="1300" cy="200" r="380" fill="#1E9A8A" opacity="0.3"/>
    <circle cx="200" cy="850" r="300" fill="#3EB7A7" opacity="0.2"/>
  </g>
  <g transform="translate(950,300)" opacity="0.9">
    <rect x="0" y="80" width="280" height="360" rx="16" fill="#FBF8F1" opacity="0.95"/>
    <rect x="30" y="120" width="180" height="14" rx="7" fill="#CBD5E1"/>
    <rect x="30" y="150" width="220" height="10" rx="5" fill="#E2E8F0"/>
    <rect x="30" y="170" width="220" height="10" rx="5" fill="#E2E8F0"/>
    <rect x="30" y="190" width="150" height="10" rx="5" fill="#E2E8F0"/>
    <rect x="30" y="240" width="220" height="60" rx="8" fill="#EFFCFA"/>
    <rect x="30" y="320" width="100" height="34" rx="8" fill="#1E9A8A"/>
    <circle cx="220" cy="380" r="26" fill="#F59E42"/>
  </g>
  <g transform="translate(1180,420)" opacity="0.85">
    <rect x="0" y="140" width="30" height="90" rx="6" fill="#F59E42"/>
    <rect x="42" y="100" width="30" height="130" rx="6" fill="#3EB7A7"/>
    <rect x="84" y="60" width="30" height="170" rx="6" fill="#FBBF6B"/>
    <rect x="126" y="20" width="30" height="210" rx="6" fill="#74D4C7"/>
  </g>
</svg>
