<svg width="1600" height="1000" viewBox="0 0 1600 1000" xmlns="http://www.w3.org/2000/svg">
  <defs>
    <linearGradient id="bg2" x1="0%" y1="0%" x2="100%" y2="100%">
      <stop offset="0%" stop-color="#115F55"/>
      <stop offset="100%" stop-color="#1E9A8A"/>
    </linearGradient>
  </defs>
  <rect width="1600" height="1000" fill="url(#bg2)"/>
  <circle cx="250" cy="180" r="320" fill="#3EB7A7" opacity="0.25"/>
  <circle cx="1400" cy="820" r="260" fill="#0E3D37" opacity="0.35"/>
  <g transform="translate(980,260)">
    <rect x="0" y="0" width="300" height="400" rx="18" fill="#FBF8F1"/>
    <rect x="34" y="40" width="140" height="16" rx="8" fill="#0E3D37"/>
    <rect x="34" y="72" width="232" height="10" rx="5" fill="#E2E8F0"/>
    <rect x="34" y="92" width="232" height="10" rx="5" fill="#E2E8F0"/>
    <rect x="34" y="112" width="180" height="10" rx="5" fill="#E2E8F0"/>
    <rect x="34" y="150" width="232" height="1.5" fill="#CBD5E1"/>
    <rect x="34" y="176" width="232" height="10" rx="5" fill="#E2E8F0"/>
    <rect x="34" y="196" width="200" height="10" rx="5" fill="#E2E8F0"/>
    <circle cx="230" cy="320" r="52" fill="none" stroke="#F59E42" stroke-width="6"/>
    <path d="M206 320 L222 336 L256 300" fill="none" stroke="#F59E42" stroke-width="8" stroke-linecap="round" stroke-linejoin="round"/>
  </g>
</svg>
