<svg width="1600" height="1000" viewBox="0 0 1600 1000" xmlns="http://www.w3.org/2000/svg">
  <defs>
    <linearGradient id="bg3" x1="0%" y1="0%" x2="100%" y2="100%">
      <stop offset="0%" stop-color="#0B1220"/>
      <stop offset="100%" stop-color="#115F55"/>
    </linearGradient>
  </defs>
  <rect width="1600" height="1000" fill="url(#bg3)"/>
  <circle cx="1350" cy="260" r="340" fill="#1E9A8A" opacity="0.28"/>
  <g transform="translate(960,340)">
    <rect x="0" y="60" width="320" height="220" rx="16" fill="#FBF8F1"/>
    <rect x="30" y="95" width="120" height="12" rx="6" fill="#0E3D37"/>
    <rect x="30" y="122" width="260" height="8" rx="4" fill="#E2E8F0"/>
    <rect x="30" y="140" width="260" height="8" rx="4" fill="#E2E8F0"/>
    <rect x="30" y="158" width="180" height="8" rx="4" fill="#E2E8F0"/>
    <rect x="30" y="200" width="90" height="50" rx="10" fill="#EFFCFA"/>
    <text x="45" y="232" font-family="Arial" font-size="20" font-weight="700" fill="#115F55">₹</text>
    <rect x="140" y="200" width="150" height="50" rx="10" fill="#1E9A8A"/>
  </g>
  <g transform="translate(1120,260)">
    <path d="M0 40 L40 0 L80 40 L60 40 L60 90 L20 90 L20 40 Z" fill="#F59E42"/>
  </g>
</svg>
