<svg width="1200" height="750" viewBox="0 0 1200 750" xmlns="http://www.w3.org/2000/svg">
  <rect width="1200" height="750" fill="#EFFCFA"/>
  <circle cx="950" cy="150" r="220" fill="#ACE9E1" opacity="0.5"/>
  <circle cx="120" cy="650" r="180" fill="#3EB7A7" opacity="0.2"/>
  <g transform="translate(400,120)">
    <rect x="0" y="0" width="330" height="470" rx="14" fill="#ffffff" stroke="#CBD5E1" stroke-width="2"/>
    <rect x="36" y="46" width="180" height="18" rx="9" fill="#0E3D37"/>
    <rect x="36" y="90" width="258" height="12" rx="6" fill="#E2E8F0"/>
    <rect x="36" y="114" width="258" height="12" rx="6" fill="#E2E8F0"/>
    <rect x="36" y="138" width="190" height="12" rx="6" fill="#E2E8F0"/>
    <rect x="36" y="180" width="258" height="1.5" fill="#E2E8F0"/>
    <rect x="36" y="206" width="258" height="12" rx="6" fill="#E2E8F0"/>
    <rect x="36" y="230" width="258" height="12" rx="6" fill="#E2E8F0"/>
    <rect x="36" y="254" width="150" height="12" rx="6" fill="#E2E8F0"/>
    <rect x="36" y="320" width="258" height="70" rx="10" fill="#F1F5F9"/>
  </g>
  <g transform="translate(570,420)">
    <circle cx="0" cy="0" r="70" fill="#F59E42"/>
    <path d="M-28 0 L-8 20 L32 -22" fill="none" stroke="white" stroke-width="10" stroke-linecap="round" stroke-linejoin="round"/>
  </g>
</svg>
